<svg xmlns="http://www.w3.org/2000/svg" viewBox="0 0 843.75 583.15"><title>Koya</title><path d="M700.74,311.31c2.9,54.09,6.1,102.44-28.3,146.24-62.52,79.6-146.46,81-214.08,83.07a733.1,733.1,0,0,1-108.68-4.29,324.12,324.12,0,0,1-96.21-26c-42.44-18.91-76.21-66.6-86.58-106-4.07-15.43-4.48-35.49-5.61-51.43-.32-4.56-.6-20.26-2-21.53-1.59-1.48-26.19-1.73-31.87-3.74-21.4-7.57-44.26-23.78-58.12-41.83C3.57,200.29,63.93,60.14,175.75,63.26c34.34,1,54.4,18.08,75,41.07,9.72,10.86,17.71,24.64,23.79,37.82.14.31.73,2.12,1,2.2.1,0,16.44-7.25,19-8.22,18.2-7,37.76-15.33,56.68-19.75,51.44-12,109.45-11,160.66.68,17.35,4,40,7.66,54.58,18.5l.22-1.38c2.48-15.75,13-30.18,22.31-42.86,29.47-40.06,73.31-59.13,120.46-44.06,7.62,2.44,19.27,8.95,26.22,13,52,30.18,76.4,100,61.87,156.43-5.57,21.63-14.57,42.79-32,60.22s-32.8,27.49-56.92,32.55" style="fill:none;stroke:#fff;stroke-linecap:round;stroke-linejoin:round;stroke-width:84.20999908447266px"/><path d="M671.62,41.36c66.36-3.12,125,54.94,131,129.69S759.7,308.93,693.34,312s-125-54.94-131-129.69S605.27,44.49,671.62,41.36Z" style="fill:#c5edff;stroke:#000;stroke-linecap:round;stroke-linejoin:round;stroke-width:18px"/><path d="M689.8,117.64c31.74,10.82,48.06,48.55,36.46,84.26S679.5,257.79,647.76,247,599.7,198.42,611.3,162.7,658.06,106.82,689.8,117.64Z" style="fill:#e6f7ff;stroke:#e6f7ff;stroke-linecap:round;stroke-linejoin:round;stroke-width:18.540000915527344px"/><path d="M174.21,61.69C107.92,57.37,48.22,114.35,40.87,189s40.42,138.63,106.7,143,126-52.66,133.34-127.29S240.5,66,174.21,61.69Z" style="fill:#c5edff;stroke:#000;stroke-linecap:round;stroke-linejoin:round;stroke-width:18px"/><path d="M154.65,137.62c-31.93,10.24-48.94,47.67-38,83.58s45.73,56.73,77.66,46.48,48.94-47.67,38-83.58S186.58,127.38,154.65,137.62Z" style="fill:#e6f7ff;stroke:#e6f7ff;stroke-linecap:round;stroke-linejoin:round;stroke-width:20.389999389648438px"/><path d="M434.19,108.18c68.81,0,121,15.35,168.77,52.27,55.76,43.12,91.85,100.35,99.52,169.91,7.58,68.79-16.85,128.32-66.64,166.84-46.41,35.9-130.11,43.47-196.8,43.47-67,0-159.55-7.5-206.79-42.67-58-43.18-76-98.6-70.4-167.64C167,267,199.48,214.09,246.63,171.72,295.78,127.56,358,108.18,434.19,108.18Z" style="fill:#c5edff;stroke:#000;stroke-linecap:round;stroke-linejoin:round;stroke-width:18px"/><path d="M431.63,324.44c-14.71.42-26.75,9.69-35.25,23-9,14.1-15.92,29.53-15.85,46.37.13,34.8,23.68,56.7,52.85,56.7s53-23.55,52.85-56.7c-.08-18.08-11.34-36.16-18.46-46.88C459.08,333.86,445.29,324,431.63,324.44Z" style="fill:#9e85e4;stroke:#000507;stroke-linecap:round;stroke-linejoin:round;stroke-width:15px"/><path d="M583.07,386.22l-59.84-9.66" style="fill:none;stroke:#000507;stroke-linecap:round;stroke-linejoin:round;stroke-width:15px"/><path d="M295.43,381.4l59.84-9.66" style="fill:none;stroke:#000507;stroke-linecap:round;stroke-linejoin:round;stroke-width:15px"/><path d="M393.89,463.85c16.59,15,26.71,14.12,39.44,13.92,16-.26,27-1.87,40.63-17.34" style="fill:none;stroke:#000507;stroke-linecap:round;stroke-linejoin:round;stroke-width:15px"/></svg>